<svg width="84" height="74" viewBox="0 0 84 74" fill="none" xmlns="http://www.w3.org/2000/svg">
<path d="M39.8326 14.7352L12.0493 14.7352" stroke="#7BAE27" stroke-width="3" stroke-linecap="round"/>
<g clip-path="url(#clip0_3_39)">
<path d="M64.7933 20.9308C64.6618 20.7865 64.5803 20.7253 64.2525 21.024C63.9247 21.3226 53.8834 30.5267 53.7738 30.6265C53.6643 30.7263 53.7169 30.879 53.8863 31.0674L54.5788 31.8375C54.692 31.9634 54.8118 31.9396 55.0014 31.7385C55.19 31.5382 65.3518 22.2778 65.476 22.1647C65.6001 22.0516 65.6466 21.9056 65.4729 21.6977C65.3304 21.53 64.9496 21.1028 64.7933 20.9308Z" fill="#02AB47"/>
<path d="M59.928 22.9589C59.928 22.9589 60.4789 22.4152 61.214 22.4845C61.8909 22.5483 62.1794 22.9208 62.1794 22.9208L61.6157 23.441C61.6157 23.441 61.8804 23.5877 62.1898 23.9612C62.4991 24.3348 62.641 24.7456 62.641 24.7456L63.2363 24.2033C63.2363 24.2033 63.4247 24.3944 63.3434 25.0169C63.3027 25.3281 63.0472 25.7866 62.8926 26.0026C62.6932 26.2796 62.6609 26.4745 62.8592 26.7302C63.0576 26.9858 63.223 27.1661 63.3615 27.3091C63.5581 27.5129 64.1033 25.8158 64.1033 25.8158C64.1033 25.8158 64.5445 24.0732 64.3361 23.8267C64.1269 23.5792 62.7506 22.1245 62.5477 22.0503C62.3447 21.9761 60.8558 21.6355 60.8558 21.6355L59.7329 22.426C59.7329 22.426 59.6402 23.1542 59.6703 23.1267C59.6996 23.0983 59.928 22.9589 59.928 22.9589Z" fill="#2F7C31"/>
<path d="M59.2842 22.243L59.2007 21.0418C59.2007 21.0418 57.9356 21.9217 57.7643 23.1092C57.6402 23.9779 57.8737 24.6513 58.0716 25.2501C58.2575 25.8097 58.4849 26.3064 58.4849 26.3064L57.8182 26.9171L58.2732 28.7345L59.149 27.9333C59.149 27.9333 59.3169 28.628 59.2803 29.086C59.2437 29.544 58.9576 29.8447 58.7697 30.0292C58.5819 30.2137 58.1884 30.395 58.1884 30.395L57.4698 30.8039L60.445 30.939L59.5613 25.0299L59.2842 22.243Z" fill="#2F7C31"/>
<path d="M55.2217 24.822C55.2217 24.822 54.8933 24.7801 54.5083 25.2294C54.1503 25.6458 53.7279 26.4469 53.7903 27.6339C53.8528 28.8209 54.603 29.8694 54.603 29.8694L54.1419 30.2895L55.2429 31.5101L55.6986 31.0915C55.6986 31.0915 56.385 31.7938 57.3284 32.0561C58.3149 32.3311 59.5679 32.0473 60.3228 31.3111C60.5876 31.0532 60.3876 30.9177 60.3876 30.9177C60.3876 30.9177 56.4411 30.4302 56.291 30.2928C56.1408 30.1554 55.0832 28.4657 55.0832 28.4657L55.331 25.7656L55.2217 24.822Z" fill="#2F7C31"/>
<path d="M55.8989 25.2482C55.4427 24.8313 55.2102 24.7538 55.0685 24.8696C54.9276 24.9845 52.9379 27.5209 55.4787 30.267C57.9161 32.9017 59.8138 31.7481 60.4609 31.1987C61.2399 30.5392 61.4639 29.5193 61.1489 27.9739C60.9129 26.823 59.9416 24.4093 59.8577 23.9391C59.7806 23.5061 59.8151 22.7742 60.4301 22.3092C61.0451 21.8442 62.166 21.9583 63.1933 23.1156C64.2207 24.2728 63.8319 25.4512 63.6766 25.7532C63.4249 26.2399 62.9062 26.6623 63.0298 26.9309C63.0872 27.0558 63.3552 27.3316 63.5268 27.4762C63.6984 27.6209 64.0359 27.7413 64.3771 27.4539C64.7711 27.1218 66.5425 24.7842 64.1264 22.1435C61.8204 19.6216 59.709 20.4065 58.9091 21.3141C58.1489 22.1737 57.9778 23.5868 58.5303 25.1081C59.0828 26.6294 60.3087 29.0954 59.2808 29.9917C58.3578 30.7957 57.0886 30.0309 56.349 29.1198C55.6029 28.1995 55.6775 27.2555 56.1136 26.5306C56.5299 25.8354 56.205 25.5295 55.8989 25.2482Z" fill="#02AB47"/>
<path d="M55.9925 25.9304C56.0817 25.6786 55.4916 25.076 55.1257 25.2639C54.7598 25.45 54.5602 26.1535 54.7722 26.3098C55.0642 26.5236 55.1775 26.0142 55.3896 26.0081C55.6028 25.9995 55.882 26.2417 55.9925 25.9304Z" fill="#7ADC8A"/>
<path d="M64.9553 21.4269C64.7955 21.2398 64.613 21.0332 64.3584 21.2451C64.1128 21.4504 63.946 21.6325 64.0195 21.7327C64.1027 21.8475 64.4604 21.7908 64.6159 21.7662C64.8127 21.7374 65.1275 21.6295 64.9553 21.4269Z" fill="#7ADC8A"/>
<path d="M62.2509 21.3343C62.2886 21.1712 62.0179 20.7057 60.8629 20.7697C59.708 20.8338 59.5366 21.3544 59.6326 21.4926C59.7637 21.6808 59.9859 21.6489 60.3057 21.5465C60.761 21.4009 61.116 21.3985 61.5712 21.4854C61.9599 21.5593 62.1856 21.6145 62.2509 21.3343Z" fill="#7ADC8A"/>
</g>
<path d="M61.0019 5.10815C59.3031 4.56221 54.6732 2.86491 54.6732 2.86491C54.6732 2.86491 53.3117 6.92616 52.1117 9.39011C50.902 11.8741 49.9832 13.1465 48.5139 15.4914C47.1919 17.6012 46.4661 18.7984 44.9976 20.8122C42.9687 23.5946 41.7991 25.1622 39.3547 27.5987C36.8035 30.1417 32.2116 33.4532 32.2116 33.4532L31.5027 33.9418C31.5027 33.9418 33.4219 35.3304 35.907 37.1321M35.907 37.1321C37.3833 38.2025 39.0593 39.4186 40.6512 40.576M35.907 37.1321C37.7597 38.477 38.7985 39.2311 40.6512 40.576M40.6512 40.576C41.6821 41.3255 43.5611 42.695 43.5611 42.695" stroke="#53A03A" stroke-width="3" stroke-linecap="round"/>
<path d="M52.0009 4.39381C50.2664 4.55746 45.5013 4.84877 45.5013 4.84877C45.5013 4.84877 44.9309 8.30215 44.225 10.5221C43.5133 12.76 42.8609 14.0062 41.874 16.2281C40.9861 18.2272 40.5057 19.3535 39.4593 21.3306C38.0136 24.0622 37.1736 25.6101 35.265 28.225C33.273 30.9542 29.4571 34.9316 29.4571 34.9316L28.8638 35.529L31.849 36.9399L35.2243 38.0727L38.81 39.0297" stroke="#53A03A" stroke-width="3" stroke-linecap="round"/>
<path d="M45.5469 26.8329C42.5951 29.0703 37.468 31.791 37.468 31.791L36.6799 32.1877C36.6799 32.1877 38.3589 34.0029 39.4385 35.1625C40.6668 36.482 41.2833 37.2946 42.5912 38.5341C43.9039 39.7781 44.6994 40.415 46.138 41.5089C47.5515 42.5837 49.8818 44.0871 49.8818 44.0871C49.8818 44.0871 53.9091 42.2783 56.3843 40.9139C58.352 39.8294 59.4414 39.1881 61.3104 37.9391C63.0543 36.7737 63.9702 36.0293 65.6454 34.7659C67.7517 33.1773 68.9951 32.3575 70.9656 30.6011C72.8394 28.9309 73.8637 27.9481 75.4976 26.0396C76.8238 24.4906 77.4732 23.5414 78.6503 21.8748C80.0353 19.9139 82.0001 16.7184 82.0001 16.7184C82.0001 16.7184 80.0501 14.2176 78.6503 12.7519C76.7992 10.8137 75.6945 9.76197 73.5272 8.19048C71.846 6.97153 70.8493 6.34464 68.9951 5.41394C67.3583 4.59234 64.6602 3.62903 64.6602 3.62903C64.6602 3.62903 62.6879 7.61433 61.1134 9.9754C59.5261 12.3556 58.4106 13.5295 56.5813 15.7268C54.9355 17.7037 54.0262 18.8293 52.2464 20.6849C49.7873 23.2487 48.3751 24.6892 45.5469 26.8329Z" stroke="#0D803D" stroke-width="3"/>
<path d="M29.7833 20.6849L2.00001 20.6849" stroke="#7BAE27" stroke-width="3" stroke-linecap="round"/>
<path d="M32.739 26.238L19.3399 26.238" stroke="#7BAE27" stroke-width="3" stroke-linecap="round"/>
<path d="M28.0099 32.981L2.0001 32.981" stroke="#7BAE27" stroke-width="3" stroke-linecap="round"/>
<path d="M15.4841 56.9452H11.8858L11.8665 54.9504H14.8876C15.42 54.9504 15.8562 54.8826 16.1961 54.747C16.5361 54.605 16.7894 54.4016 16.9562 54.137C17.1294 53.8658 17.216 53.5366 17.216 53.1492C17.216 52.7102 17.1326 52.3551 16.9658 52.084C16.8055 51.8128 16.5521 51.6159 16.2057 51.4933C15.8658 51.3706 15.4264 51.3093 14.8876 51.3093H12.8864V63.1332H10V49.0336H14.8876C15.7022 49.0336 16.4302 49.1111 17.0717 49.266C17.7195 49.4209 18.2679 49.6566 18.7169 49.9729C19.1659 50.2893 19.5091 50.6895 19.7464 51.1737C19.9837 51.6514 20.1024 52.2196 20.1024 52.8781C20.1024 53.4591 19.9709 53.9949 19.7079 54.4856C19.4513 54.9762 19.044 55.3765 18.486 55.6864C17.9344 55.9962 17.2128 56.1673 16.3212 56.1996L15.4841 56.9452ZM15.3591 63.1332H11.0968L12.2225 60.8672H15.3591C15.8658 60.8672 16.2795 60.7865 16.6002 60.6251C16.9209 60.4572 17.1583 60.2313 17.3122 59.9472C17.4661 59.6632 17.5431 59.3371 17.5431 58.9692C17.5431 58.556 17.4725 58.1977 17.3314 57.8943C17.1967 57.5908 16.9787 57.3584 16.6772 57.197C16.3757 57.0292 15.978 56.9452 15.4841 56.9452H12.7036L12.7228 54.9504H16.1865L16.8504 55.7348C17.7035 55.7219 18.3898 55.8736 18.9093 56.1899C19.4353 56.4998 19.8169 56.9033 20.0543 57.4004C20.298 57.8975 20.4199 58.4301 20.4199 58.9982C20.4199 59.902 20.2242 60.6638 19.833 61.2836C19.4417 61.8969 18.8676 62.3585 18.1108 62.6684C17.3603 62.9782 16.4431 63.1332 15.3591 63.1332Z" fill="#0E823B"/>
<path d="M28.0303 60.7703V56.1028C28.0303 55.7671 27.9758 55.4798 27.8668 55.2409C27.7577 54.9956 27.5877 54.8051 27.3568 54.6696C27.1323 54.534 26.8405 54.4662 26.4813 54.4662C26.1734 54.4662 25.9072 54.5211 25.6827 54.6308C25.4582 54.7341 25.285 54.8858 25.1632 55.086C25.0413 55.2796 24.9804 55.5088 24.9804 55.7735H22.2094C22.2094 55.3281 22.3121 54.9052 22.5173 54.5049C22.7226 54.1047 23.0208 53.7528 23.4121 53.4494C23.8034 53.1395 24.2684 52.8974 24.8072 52.7231C25.3524 52.5488 25.9617 52.4617 26.6352 52.4617C27.4434 52.4617 28.1618 52.5972 28.7904 52.8684C29.419 53.1395 29.9129 53.5462 30.2721 54.0885C30.6377 54.6308 30.8205 55.3087 30.8205 56.1221V60.6057C30.8205 61.1803 30.8558 61.6516 30.9263 62.0196C30.9969 62.3811 31.0995 62.6974 31.2342 62.9686V63.1332H28.4344C28.2997 62.8491 28.1971 62.4941 28.1265 62.068C28.0624 61.6354 28.0303 61.2029 28.0303 60.7703ZM28.3959 56.7516L28.4152 58.33H26.8661C26.5005 58.33 26.183 58.372 25.9136 58.4559C25.6442 58.5398 25.423 58.6593 25.2498 58.8142C25.0766 58.9627 24.9483 59.137 24.8649 59.3371C24.7879 59.5373 24.7495 59.7568 24.7495 59.9956C24.7495 60.2345 24.804 60.4508 24.913 60.6445C25.0221 60.8317 25.1792 60.9802 25.3845 61.0899C25.5897 61.1932 25.8303 61.2449 26.1061 61.2449C26.523 61.2449 26.8854 61.1609 27.1933 60.9931C27.5012 60.8252 27.7385 60.6186 27.9053 60.3733C28.0784 60.128 28.1682 59.8956 28.1746 59.6761L28.9059 60.8575C28.8032 61.1222 28.6621 61.3966 28.4825 61.6806C28.3093 61.9647 28.0881 62.2326 27.8187 62.4844C27.5493 62.7297 27.2253 62.9331 26.8469 63.0945C26.4685 63.2494 26.0195 63.3269 25.4999 63.3269C24.8393 63.3269 24.2395 63.1945 23.7007 62.9298C23.1684 62.6587 22.745 62.2875 22.4307 61.8162C22.1228 61.3385 21.9689 60.7962 21.9689 60.1893C21.9689 59.6406 22.0715 59.1532 22.2768 58.7271C22.482 58.301 22.7835 57.9427 23.1812 57.6522C23.5853 57.3552 24.0888 57.1325 24.6917 56.984C25.2947 56.829 25.9938 56.7516 26.7892 56.7516H28.3959Z" fill="#0E823B"/>
<path d="M35.6696 54.8923V63.1332H32.8987V52.6553H35.4965L35.6696 54.8923ZM35.2655 57.5263H34.5151C34.5151 56.7516 34.6145 56.0543 34.8133 55.4346C35.0122 54.8084 35.2912 54.2758 35.6504 53.8368C36.0096 53.3913 36.4361 53.0524 36.93 52.82C37.4303 52.5811 37.9884 52.4617 38.6041 52.4617C39.0916 52.4617 39.5374 52.5327 39.9415 52.6747C40.3456 52.8167 40.692 53.0427 40.9806 53.3526C41.2757 53.6624 41.5002 54.0724 41.6541 54.5824C41.8145 55.0924 41.8946 55.7154 41.8946 56.4514V63.1332H39.1045V56.4417C39.1045 55.9769 39.0403 55.6153 38.912 55.3571C38.7837 55.0989 38.5945 54.9181 38.3444 54.8148C38.1006 54.7051 37.7992 54.6502 37.44 54.6502C37.0679 54.6502 36.744 54.7244 36.4682 54.8729C36.1988 55.0214 35.9743 55.228 35.7947 55.4927C35.6215 55.7509 35.49 56.0543 35.4002 56.403C35.3104 56.7516 35.2655 57.126 35.2655 57.5263Z" fill="#0E823B"/>
<path d="M46.7726 48.2492V63.1332H44.0017V48.2492H46.7726ZM53.3344 52.6553L48.8123 57.8458L46.3878 60.3152L45.3775 58.301L47.3018 55.8413L50.0054 52.6553H53.3344ZM50.4576 63.1332L47.3788 58.2913L49.2934 56.6063L53.6519 63.1332H50.4576Z" fill="#0E823B"/>
<path d="M56.6248 49.0336L59.5497 55.4636L62.4746 49.0336H65.6208L61.0122 58.0008V63.1332H58.0873V58.0008L53.4691 49.0336H56.6248Z" fill="#0E823B"/>
<path d="M71.6918 60.7703V56.1028C71.6918 55.7671 71.6373 55.4798 71.5283 55.2409C71.4192 54.9956 71.2492 54.8051 71.0183 54.6696C70.7938 54.534 70.502 54.4662 70.1428 54.4662C69.8349 54.4662 69.5687 54.5211 69.3442 54.6308C69.1197 54.7341 68.9465 54.8858 68.8247 55.086C68.7028 55.2796 68.6419 55.5088 68.6419 55.7735H65.8709C65.8709 55.3281 65.9736 54.9052 66.1788 54.5049C66.3841 54.1047 66.6823 53.7528 67.0736 53.4494C67.4649 53.1395 67.9299 52.8974 68.4687 52.7231C69.0139 52.5488 69.6232 52.4617 70.2967 52.4617C71.1049 52.4617 71.8233 52.5972 72.4519 52.8684C73.0805 53.1395 73.5744 53.5462 73.9336 54.0885C74.2992 54.6308 74.482 55.3087 74.482 56.1221V60.6057C74.482 61.1803 74.5173 61.6516 74.5878 62.0196C74.6584 62.3811 74.761 62.6974 74.8957 62.9686V63.1332H72.0959C71.9612 62.8491 71.8586 62.4941 71.788 62.068C71.7239 61.6354 71.6918 61.2029 71.6918 60.7703ZM72.0574 56.7516L72.0767 58.33H70.5276C70.162 58.33 69.8445 58.372 69.5751 58.4559C69.3057 58.5398 69.0844 58.6593 68.9113 58.8142C68.7381 58.9627 68.6098 59.137 68.5264 59.3371C68.4494 59.5373 68.4109 59.7568 68.4109 59.9956C68.4109 60.2345 68.4655 60.4508 68.5745 60.6445C68.6836 60.8317 68.8407 60.9802 69.046 61.0899C69.2512 61.1932 69.4917 61.2449 69.7676 61.2449C70.1845 61.2449 70.5469 61.1609 70.8548 60.9931C71.1626 60.8252 71.4 60.6186 71.5667 60.3733C71.7399 60.128 71.8297 59.8956 71.8361 59.6761L72.5674 60.8575C72.4647 61.1222 72.3236 61.3966 72.144 61.6806C71.9708 61.9647 71.7495 62.2326 71.4801 62.4844C71.2107 62.7297 70.8868 62.9331 70.5084 63.0945C70.13 63.2494 69.681 63.3269 69.1614 63.3269C68.5007 63.3269 67.901 63.1945 67.3622 62.9298C66.8298 62.6587 66.4065 62.2875 66.0922 61.8162C65.7843 61.3385 65.6304 60.7962 65.6304 60.1893C65.6304 59.6406 65.733 59.1532 65.9383 58.7271C66.1435 58.301 66.445 57.9427 66.8427 57.6522C67.2468 57.3552 67.7503 57.1325 68.3532 56.984C68.9562 56.829 69.6553 56.7516 70.4507 56.7516H72.0574Z" fill="#0E823B"/>
<defs>
<clipPath id="clip0_3_39">
<rect width="15.8199" height="15.8097" fill="white" transform="matrix(0.668655 0.743573 -0.739251 0.67343 60.1899 15.1318)"/>
</clipPath>
</defs>
</svg>
